<svg xmlns="http://www.w3.org/2000/svg" viewBox="0 0 1 1" preserveAspectRatio="none">
  <path fill="#000" d="M0.500000 0.000000 L0.363054 0.000154 L0.319354 0.000617 L0.287656 0.001389 L0.261931 0.002471 L0.239946 0.003865 L0.220589 0.005573 L0.203216 0.007595 L0.187419 0.009936 L0.172916 0.012599 L0.159509 0.015587 L0.147049 0.018904 L0.135423 0.022556 L0.124544 0.026549 L0.114340 0.030888 L0.104756 0.035583 L0.095743 0.040640 L0.087264 0.046071 L0.079285 0.051886 L0.071780 0.058099 L0.064725 0.064725 L0.058099 0.071780 L0.051886 0.079285 L0.046071 0.087264 L0.040640 0.095743 L0.035583 0.104756 L0.030888 0.114340 L0.026549 0.124544 L0.022556 0.135423 L0.018904 0.147049 L0.015587 0.159509 L0.012599 0.172916 L0.009936 0.187419 L0.007595 0.203216 L0.005573 0.220589 L0.003865 0.239946 L0.002471 0.261931 L0.001389 0.287656 L0.000617 0.319354 L0.000154 0.363054 L0.000000 0.500000 L0.000154 0.636946 L0.000617 0.680646 L0.001389 0.712344 L0.002471 0.738069 L0.003865 0.760054 L0.005573 0.779411 L0.007595 0.796784 L0.009936 0.812581 L0.012599 0.827084 L0.015587 0.840491 L0.018904 0.852951 L0.022556 0.864577 L0.026549 0.875456 L0.030888 0.885660 L0.035583 0.895244 L0.040640 0.904257 L0.046071 0.912736 L0.051886 0.920715 L0.058099 0.928220 L0.064725 0.935275 L0.071780 0.941901 L0.079285 0.948114 L0.087264 0.953929 L0.095743 0.959360 L0.104756 0.964417 L0.114340 0.969112 L0.124544 0.973451 L0.135423 0.977444 L0.147049 0.981096 L0.159509 0.984413 L0.172916 0.987401 L0.187419 0.990064 L0.203216 0.992405 L0.220589 0.994427 L0.239946 0.996135 L0.261931 0.997529 L0.287656 0.998611 L0.319354 0.999383 L0.363054 0.999846 L0.500000 1.000000 L0.636946 0.999846 L0.680646 0.999383 L0.712344 0.998611 L0.738069 0.997529 L0.760054 0.996135 L0.779411 0.994427 L0.796784 0.992405 L0.812581 0.990064 L0.827084 0.987401 L0.840491 0.984413 L0.852951 0.981096 L0.864577 0.977444 L0.875456 0.973451 L0.885660 0.969112 L0.895244 0.964417 L0.904257 0.959360 L0.912736 0.953929 L0.920715 0.948114 L0.928220 0.941901 L0.935275 0.935275 L0.941901 0.928220 L0.948114 0.920715 L0.953929 0.912736 L0.959360 0.904257 L0.964417 0.895244 L0.969112 0.885660 L0.973451 0.875456 L0.977444 0.864577 L0.981096 0.852951 L0.984413 0.840491 L0.987401 0.827084 L0.990064 0.812581 L0.992405 0.796784 L0.994427 0.779411 L0.996135 0.760054 L0.997529 0.738069 L0.998611 0.712344 L0.999383 0.680646 L0.999846 0.636946 L1.000000 0.500000 L0.999846 0.363054 L0.999383 0.319354 L0.998611 0.287656 L0.997529 0.261931 L0.996135 0.239946 L0.994427 0.220589 L0.992405 0.203216 L0.990064 0.187419 L0.987401 0.172916 L0.984413 0.159509 L0.981096 0.147049 L0.977444 0.135423 L0.973451 0.124544 L0.969112 0.114340 L0.964417 0.104756 L0.959360 0.095743 L0.953929 0.087264 L0.948114 0.079285 L0.941901 0.071780 L0.935275 0.064725 L0.928220 0.058099 L0.920715 0.051886 L0.912736 0.046071 L0.904257 0.040640 L0.895244 0.035583 L0.885660 0.030888 L0.875456 0.026549 L0.864577 0.022556 L0.852951 0.018904 L0.840491 0.015587 L0.827084 0.012599 L0.812581 0.009936 L0.796784 0.007595 L0.779411 0.005573 L0.760054 0.003865 L0.738069 0.002471 L0.712344 0.001389 L0.680646 0.000617 L0.636946 0.000154 Z"/>
</svg>
